# xmcd CD database file
#
# Track frame offsets:
#	150
#	12013
#	28560
#	47138
#	59185
#	74316
#	85376
#	103361
#	121594
#	135403
#	149877
#
# Disc length: 2219 seconds
#
# Revision: 5
# Processed by: cddbd v1.5.2PL0 Copyright (c) Steve Scherf et al.
# Submitted via: CDex 1.51
#
DISCID=a108a90b
DTITLE=譚詠麟 - 忘不了您
DYEAR=1981
DGENRE=Oldies
TTITLE0=想將來
TTITLE1=天邊一隻雁
TTITLE2=山野閒情
TTITLE3=情兩牽
TTITLE4=我心喜歡你
TTITLE5=尋樂真0岩數
TTITLE6=忘不了您
TTITLE7=愛上您
TTITLE8=不必伸手給我
TTITLE9=愛意怎擋
TTITLE10=小風波
EXTD=YEAR: 1981
EXTT0=
EXTT1=
EXTT2=
EXTT3=
EXTT4=
EXTT5=
EXTT6=
EXTT7=
EXTT8=
EXTT9=
EXTT10=
PLAYORDER=
